<svg xmlns="http://www.w3.org/2000/svg" width="82.694" height="47.41" viewBox="0 0 82.694 47.41"><g transform="translate(-1169.223 1034.25)"><path d="M186.841,149.411h-18.7v-.678h18.7a.352.352,0,0,0,.351-.351V138.01a.351.351,0,0,0-.351-.35H148.253a.351.351,0,0,0-.35.35v1.883a.72.72,0,0,1-.175.5.517.517,0,0,1-.376.158h-26.46c-3.629,0-6.762,0-6.762,3.657h-.678c0-4.336,3.783-4.336,7.441-4.336h26.327l.007-1.862a1.03,1.03,0,0,1,1.028-1.029h38.587a1.031,1.031,0,0,1,1.03,1.029v10.372a1.031,1.031,0,0,1-1.03,1.029Z" transform="translate(1058.54 -1170.85)" fill="#dad2bc" stroke="#dad2bc" stroke-width="0.5"/><path d="M492.561,146.7a.586.586,0,0,1,.586.586v6.907a.586.586,0,0,1-.586.586H482.2a.586.586,0,0,1-.586-.586v-6.907a.587.587,0,0,1,.586-.586h10.363m0-.678H482.2a1.267,1.267,0,0,0-1.266,1.265v6.907a1.267,1.267,0,0,0,1.266,1.265h10.365a1.266,1.266,0,0,0,1.266-1.265v-6.907a1.268,1.268,0,0,0-1.267-1.265Z" transform="translate(750.99 -1178.415)" fill="#dad2bc" stroke="#dad2bc" stroke-width="0.5"/><path d="M497.791,159.949h-9.408a.633.633,0,0,1-.633-.632v-5.97a.633.633,0,0,1,.633-.632h9.408a.633.633,0,0,1,.632.632v5.97A.632.632,0,0,1,497.791,159.949Zm-.047-6.6-9.361.048.046,5.923,9.315-.047Z" transform="translate(745.284 -1184.018)" fill="#dad2bc" stroke="#dad2bc" stroke-width="0.5"/><path d="M186.525,197.125H149.4a.34.34,0,1,1,0-.679h37.126a.34.34,0,0,1,0,.679Z" transform="translate(1028.741 -1220.617)" fill="#dad2bc" stroke="#dad2bc" stroke-width="0.5"/><path d="M118.111,204.21a19.011,19.011,0,0,1-4.092-.941,1.026,1.026,0,0,1-.559-.915v-37.7h.678v37.7a.347.347,0,0,0,.19.31,19.322,19.322,0,0,0,3.783.866h68.521a9.52,9.52,0,0,0,3.13-.875.4.4,0,0,0,.172-.3v-37.7a.328.328,0,0,0-.03-.14l.2-.312-.243.238a1.474,1.474,0,0,0-.289-.25,4.507,4.507,0,0,0-.51-.28l-.105-.05c-.162-.078-.325-.156-.482-.246a2.891,2.891,0,0,1-.563-.4,2.045,2.045,0,0,1-.445-.573,2.318,2.318,0,0,1-.236-.758c-.007-.048-.014-.1-.018-.154-.009-.1-.015-.206-.015-.32h.68c0,.092,0,.179.012.262l.013.115a1.666,1.666,0,0,0,.167.541,1.36,1.36,0,0,0,.3.385,2.306,2.306,0,0,0,.438.305c.145.083.294.154.441.225l.107.052a4.957,4.957,0,0,1,.556.3,2.109,2.109,0,0,1,.438.368.953.953,0,0,1,.141.2,1.073,1.073,0,0,1,.122.484v37.7a1.066,1.066,0,0,1-.448.849,9.6,9.6,0,0,1-3.534,1.008H118.111Z" transform="translate(1058.533 -1191.3)" fill="#dad2bc" stroke="#dad2bc" stroke-width="0.5"/><path d="M569.063,151.81h-.68V148.4a.366.366,0,0,0-.057-.194.425.425,0,0,0-.055-.063.39.39,0,0,0-.236-.092h-.689a.311.311,0,0,0-.105.017l-.225-.641a1,1,0,0,1,.33-.055h.689a1.015,1.015,0,0,1,.566.171.879.879,0,0,1,.129.1,1.142,1.142,0,0,1,.162.187,1.038,1.038,0,0,1,.173.571Z" transform="translate(678.945 -1179.548)" fill="#dad2bc" stroke="#dad2bc" stroke-width="0.5"/><path d="M361.533,166.349a1.421,1.421,0,1,1,1.421-1.421A1.422,1.422,0,0,1,361.533,166.349Zm0-2.389a.968.968,0,1,0,.968.968A.97.97,0,0,0,361.533,163.96Z" transform="translate(852.105 -1193.051)" fill="#dad2bc" stroke="#dad2bc" stroke-width="0.5"/><path d="M363.665,168.58l.14.431-2.271.733-.14-.431Z" transform="translate(851.033 -1197.296)" fill="#dad2bc" stroke="#dad2bc" stroke-width="0.5"/><path d="M211.3,226.766a1.214,1.214,0,0,1-.867-2.062,1.243,1.243,0,0,1,1.715-.017,1.216,1.216,0,0,1,.017,1.714,1.2,1.2,0,0,1-.865.364Zm0-1.97a.758.758,0,0,0-.532,1.3.779.779,0,0,0,1.074-.01.759.759,0,0,0-.542-1.291Z" transform="translate(977.66 -1243.973)" fill="#dad2bc" stroke="#dad2bc" stroke-width="0.5"/><path d="M211.734,227.74l1.765.879-.2.405-1.765-.879Z" transform="translate(976.455 -1246.808)" fill="#dad2bc" stroke="#dad2bc" stroke-width="0.5"/><path d="M266.392,294.137a1.421,1.421,0,0,1-.582-2.717,1.454,1.454,0,0,1,1.879.714,1.423,1.423,0,0,1-.714,1.877,1.4,1.4,0,0,1-.582.126Zm0-2.388a.945.945,0,0,0-.4.086.968.968,0,0,0-.485,1.279.985.985,0,0,0,1.279.486.968.968,0,0,0-.4-1.851Z" transform="translate(931.73 -1300.005)" fill="#dad2bc" stroke="#dad2bc" stroke-width="0.5"/><path d="M268.124,293.53l1.6,1.772-.336.3-1.6-1.772Z" transform="translate(929.374 -1301.868)" fill="#dad2bc" stroke="#dad2bc" stroke-width="0.5"/><path d="M405.169,157.812h-6.632a.614.614,0,0,1-.613-.613V153a.614.614,0,0,1,.613-.612h6.632a.613.613,0,0,1,.612.612v4.2A.612.612,0,0,1,405.169,157.812Zm-6.564-.68h6.5v-4.06h-6.5Z" transform="translate(820.46 -1183.747)" fill="#dad2bc" stroke="#dad2bc" stroke-width="0.5"/><path d="M400.264,146.7a.547.547,0,0,1,.546.546V152.3a.546.546,0,0,1-.546.545h-7.489a.546.546,0,0,1-.546-.545v-5.051a.546.546,0,0,1,.546-.546h7.489m0-.678h-7.489a1.226,1.226,0,0,0-1.224,1.224V152.3a1.226,1.226,0,0,0,1.224,1.224h7.489a1.227,1.227,0,0,0,1.226-1.224v-5.051A1.227,1.227,0,0,0,400.264,146.02Z" transform="translate(825.795 -1178.415)" fill="#dad2bc" stroke="#dad2bc" stroke-width="0.5"/><path d="M404.12,154.48h.453v4.74h-.453Z" transform="translate(815.275 -1185.495)" fill="#dad2bc" stroke="#dad2bc" stroke-width="0.5"/><path d="M409.62,154.48h.453v4.74h-.453Z" transform="translate(810.672 -1185.495)" fill="#dad2bc" stroke="#dad2bc" stroke-width="0.5"/><path d="M415.12,154.48h.452v4.74h-.452Z" transform="translate(806.069 -1185.495)" fill="#dad2bc" stroke="#dad2bc" stroke-width="0.5"/><path d="M420.62,154.48h.453v4.74h-.453Z" transform="translate(801.466 -1185.495)" fill="#dad2bc" stroke="#dad2bc" stroke-width="0.5"/><path d="M426.14,154.48h.453v4.74h-.453Z" transform="translate(796.846 -1185.495)" fill="#dad2bc" stroke="#dad2bc" stroke-width="0.5"/><path d="M431.63,154.48h.453v4.74h-.453Z" transform="translate(792.251 -1185.495)" fill="#dad2bc" stroke="#dad2bc" stroke-width="0.5"/><path d="M437.14,154.48h.453v4.74h-.453Z" transform="translate(787.64 -1185.495)" fill="#dad2bc" stroke="#dad2bc" stroke-width="0.5"/><path d="M306.778,229.885a17.448,17.448,0,1,1,17.447-17.448A17.468,17.468,0,0,1,306.778,229.885Zm0-34.217a16.769,16.769,0,1,0,16.767,16.768A16.787,16.787,0,0,0,306.778,195.668Z" transform="translate(911.345 -1219.399)" fill="#dad2bc" stroke="#dad2bc" stroke-width="0.5"/><path d="M318.529,239.348a15.158,15.158,0,1,1,15.158-15.158A15.176,15.176,0,0,1,318.529,239.348Zm0-29.636a14.478,14.478,0,1,0,14.479,14.478A14.494,14.494,0,0,0,318.529,209.713Z" transform="translate(899.594 -1231.152)" fill="#dad2bc" stroke="#dad2bc" stroke-width="0.5"/><path d="M339.616,256.321a11.049,11.049,0,1,1,11.049-11.05A11.063,11.063,0,0,1,339.616,256.321Zm0-21.416a10.369,10.369,0,1,0,10.369,10.369A10.38,10.38,0,0,0,339.616,234.905Z" transform="translate(878.507 -1252.234)" fill="#dad2bc" stroke="#dad2bc" stroke-width="0.5"/><path d="M357.645,270.844a7.536,7.536,0,1,1,7.536-7.538A7.545,7.545,0,0,1,357.645,270.844Zm0-14.393a6.857,6.857,0,1,0,6.856,6.856A6.865,6.865,0,0,0,357.645,256.45Z" transform="translate(860.478 -1270.268)" fill="#dad2bc" stroke="#dad2bc" stroke-width="0.5"/><path d="M366.322,277.837a5.856,5.856,0,0,1-5.08-2.953,5.844,5.844,0,0,1,5.071-8.736,5.844,5.844,0,0,1,.009,11.689Zm-.009-11.009a5.164,5.164,0,1,0,4.49,2.6,5.159,5.159,0,0,0-4.49-2.6Z" transform="translate(851.804 -1278.953)" fill="#dad2bc" stroke="#dad2bc" stroke-width="0.5"/><path d="M372.806,290.312a.337.337,0,0,1-.295-.172,3.979,3.979,0,0,1,.424-4.535.339.339,0,0,1,.518.439,3.293,3.293,0,0,0-.352,3.758.34.34,0,0,1-.128.464.31.31,0,0,1-.167.046Z" transform="translate(842.163 -1295.136)" fill="#dad2bc" stroke="#dad2bc" stroke-width="0.5"/><path d="M381.727,281.69a.34.34,0,0,1-.195-.619c.074-.052.154-.1.234-.152a.34.34,0,0,1,.348.585c-.066.04-.131.082-.194.125a.346.346,0,0,1-.194.061Z" transform="translate(834.3 -1291.275)" fill="#dad2bc" stroke="#dad2bc" stroke-width="0.5"/><path d="M254.293,165.669h-3.654a.949.949,0,0,1-.948-.948V162.95a.949.949,0,0,1,.948-.948h3.654a.949.949,0,0,1,.948.948v1.772A.949.949,0,0,1,254.293,165.669Zm-3.654-2.988a.27.27,0,0,0-.269.268v1.772a.271.271,0,0,0,.269.269h3.654a.27.27,0,0,0,.268-.269v-1.772a.269.269,0,0,0-.268-.268Z" transform="translate(944.519 -1191.791)" fill="#dad2bc" stroke="#dad2bc" stroke-width="0.5"/><path d="M114.122,224.285h-.68v-.135c0-.9,1.6-1.31,3.094-1.31h12.018v.68H116.536c-1.582,0-2.414.468-2.414.629Z" transform="translate(1058.548 -1242.707)" fill="#dad2bc" stroke="#dad2bc" stroke-width="0.5"/><path d="M239.819,232.007h-.68v-8.5H228.873v-.68h10.543a.4.4,0,0,1,.4.4Z" transform="translate(961.942 -1242.696)" fill="#dad2bc" stroke="#dad2bc" stroke-width="0.5"/><path d="M479.212,225.548h-.68v-2.316a.408.408,0,0,1,.407-.408h14.7a5.972,5.972,0,0,1,2.3.4l-.276.621a5.382,5.382,0,0,0-2.028-.34H479.212Z" transform="translate(752.998 -1242.693)" fill="#dad2bc" stroke="#dad2bc" stroke-width="0.5"/><path d="M445.275,397.3h-20.5v-.679h20.5c2.187,0,4.712-.287,5.312-.836l.459.5c-1.053.965-4.992,1.014-5.77,1.014Z" transform="translate(797.993 -1387.444)" fill="#dad2bc" stroke="#dad2bc" stroke-width="0.5"/><path d="M348.84,400.89h3.106v.678H348.84Z" transform="translate(861.54 -1391.72)" fill="#dad2bc" stroke="#dad2bc" stroke-width="0.5"/><path d="M148.748,397.89H119.972c-.417,0-4.118-.023-5.485-.805l.337-.59c.859.492,3.271.716,5.148.716h28.776Z" transform="translate(1057.674 -1388.042)" fill="#dad2bc" stroke="#dad2bc" stroke-width="0.5"/><path d="M178.088,153.3h-9.906a.409.409,0,0,1-.408-.408v-.268a.409.409,0,0,1,.408-.409h9.906a.409.409,0,0,1,.408.409v.268A.409.409,0,0,1,178.088,153.3Z" transform="translate(1013.077 -1183.602)" fill="#dad2bc" stroke="#dad2bc" stroke-width="0.5"/><path d="M182.568,148.269h-8.75v-1.581h.678v.9h7.392v-.9h.68Z" transform="translate(1008.019 -1178.974)" fill="#dad2bc" stroke="#dad2bc" stroke-width="0.5"/><path d="M180,136.858a.069.069,0,0,1,.069.069v.647a.069.069,0,0,1-.069.069h-8.139a.069.069,0,0,1-.069-.069v-.647a.069.069,0,0,1,.069-.069H180m0-.68h-8.139a.749.749,0,0,0-.747.748v.647a.748.748,0,0,0,.747.748H180a.75.75,0,0,0,.749-.748v-.647A.751.751,0,0,0,180,136.178Z" transform="translate(1010.283 -1170.178)" fill="#dad2bc" stroke="#dad2bc" stroke-width="0.5"/><path d="M256.889,149.138h-9.623v-1.93h9.623Zm-8.944-.679h8.265v-.571h-8.265Z" transform="translate(946.549 -1179.409)" fill="#dad2bc" stroke="#dad2bc" stroke-width="0.5"/><path d="M255.906,139.33h-9.082a.409.409,0,0,1-.408-.408V137.39a.409.409,0,0,1,.408-.408h9.082a.408.408,0,0,1,.407.408v1.531a.407.407,0,0,1-.406.408Zm-8.812-.68h8.541v-.989h-8.541Z" transform="translate(947.261 -1170.851)" fill="#dad2bc" stroke="#dad2bc" stroke-width="0.5"/><path d="M569.343,148.96l1.275,1.275-.159.159-1.275-1.275Z" transform="translate(677.131 -1180.875)" fill="#dad2bc" stroke="#dad2bc" stroke-width="0.5"/><path d="M567.373,152.22l1.6,1.6-.159.159-1.6-1.6Z" transform="translate(678.779 -1183.604)" fill="#dad2bc" stroke="#dad2bc" stroke-width="0.5"/><path d="M567.359,157.44l1.6,1.6-.16.159-1.6-1.6Z" transform="translate(678.791 -1187.973)" fill="#dad2bc" stroke="#dad2bc" stroke-width="0.5"/><path d="M568.873,164.42l-1.584-1.584.068-.092.081-.08,1.593,1.595Z" transform="translate(678.716 -1192.345)" fill="#dad2bc" stroke="#dad2bc" stroke-width="0.5"/><path d="M567.938,148.95l.161.16-.7.708-.161-.16Z" transform="translate(678.763 -1180.867)" fill="#dad2bc" stroke="#dad2bc" stroke-width="0.5"/><path d="M567.366,151.673l-.161-.159,1.365-1.364.171.148-.009.009Z" transform="translate(678.786 -1181.872)" fill="#dad2bc" stroke="#dad2bc" stroke-width="0.5"/><path d="M568.871,153.89l.162.157-1.57,1.624-.162-.157Z" transform="translate(678.706 -1185.001)" fill="#dad2bc" stroke="#dad2bc" stroke-width="0.5"/><path d="M569.955,159.19l.16.161-1.369,1.361-.16-.161Z" transform="translate(677.631 -1189.437)" fill="#dad2bc" stroke="#dad2bc" stroke-width="0.5"/><path d="M571.9,164.38l.161.161-.992.992-.161-.161Z" transform="translate(675.687 -1193.781)" fill="#dad2bc" stroke="#dad2bc" stroke-width="0.5"/><path d="M574.509,169.59l.161.161-.489.492-.161-.161Z" transform="translate(673.083 -1198.141)" fill="#dad2bc" stroke="#dad2bc" stroke-width="0.5"/><path d="M248.909,139.47l.16.161-.92.914-.16-.161Z" transform="translate(945.943 -1172.933)" fill="#dad2bc" stroke="#dad2bc" stroke-width="0.5"/><path d="M251,139.53l.158.162-1.544,1.5-.158-.162Z" transform="translate(944.72 -1172.983)" fill="#dad2bc" stroke="#dad2bc" stroke-width="0.5"/><path d="M254.9,141.14l-.156-.164.069-.066,1.452-1.456.161.16Z" transform="translate(940.291 -1172.92)" fill="#dad2bc" stroke="#dad2bc" stroke-width="0.5"/><path d="M260.119,141.14l-.156-.164.068-.066,1.455-1.456.16.16Z" transform="translate(935.922 -1172.92)" fill="#dad2bc" stroke="#dad2bc" stroke-width="0.5"/><path d="M266.665,139.52l.158.162-1.544,1.5-.158-.162Z" transform="translate(931.605 -1172.975)" fill="#dad2bc" stroke="#dad2bc" stroke-width="0.5"/><path d="M271.912,139.34l.158.162-1.576,1.533-.158-.162Z" transform="translate(927.241 -1172.824)" fill="#dad2bc" stroke="#dad2bc" stroke-width="0.5"/><path d="M275.783,140.989l-.157-.162.071-.068,1.481-1.485.162.159Z" transform="translate(922.814 -1172.769)" fill="#dad2bc" stroke="#dad2bc" stroke-width="0.5"/><path d="M280.992,140.989l-.157-.162.072-.068,1.482-1.485.16.161Z" transform="translate(918.454 -1172.769)" fill="#dad2bc" stroke="#dad2bc" stroke-width="0.5"/><path d="M286.229,141.14l-.156-.164.069-.066,1.454-1.456.161.16Z" transform="translate(914.07 -1172.92)" fill="#dad2bc" stroke="#dad2bc" stroke-width="0.5"/><path d="M292.721,139.79l.158.162-1.5,1.461-.158-.162Z" transform="translate(909.764 -1173.201)" fill="#dad2bc" stroke="#dad2bc" stroke-width="0.5"/><path d="M297.572,142.12l.158.162-1.112,1.082-.158-.162Z" transform="translate(905.378 -1175.151)" fill="#dad2bc" stroke="#dad2bc" stroke-width="0.5"/><path d="M302.167,146.01l.158.162-.464.452-.158-.162Z" transform="translate(900.99 -1178.407)" fill="#dad2bc" stroke="#dad2bc" stroke-width="0.5"/><path d="M297.819,138.93l1.121,1.121-.16.16-1.121-1.121Z" transform="translate(904.374 -1172.481)" fill="#dad2bc" stroke="#dad2bc" stroke-width="0.5"/><path d="M293.163,139.48,294.685,141l-.159.159L293,139.639Z" transform="translate(908.27 -1172.941)" fill="#dad2bc" stroke="#dad2bc" stroke-width="0.5"/><path d="M288.787,140.656l-.072-.069-1.55-1.551.16-.16,1.62,1.617Z" transform="translate(913.157 -1172.436)" fill="#dad2bc" stroke="#dad2bc" stroke-width="0.5"/><path d="M283.57,140.656l-.073-.069-1.549-1.551.159-.16,1.621,1.617Z" transform="translate(917.522 -1172.436)" fill="#dad2bc" stroke="#dad2bc" stroke-width="0.5"/><path d="M276.889,138.87l1.62,1.62-.16.16-1.62-1.62Z" transform="translate(921.89 -1172.431)" fill="#dad2bc" stroke="#dad2bc" stroke-width="0.5"/><path d="M272.036,139.25l1.559,1.558-.161.161-1.559-1.558Z" transform="translate(925.953 -1172.749)" fill="#dad2bc" stroke="#dad2bc" stroke-width="0.5"/><path d="M267.907,140.656l-.073-.069-1.549-1.551.161-.16,1.619,1.617Z" transform="translate(930.632 -1172.436)" fill="#dad2bc" stroke="#dad2bc" stroke-width="0.5"/><path d="M262.674,140.653l-.075-.069-1.55-1.551.16-.16,1.62,1.616Z" transform="translate(935.013 -1172.433)" fill="#dad2bc" stroke="#dad2bc" stroke-width="0.5"/><path d="M257.872,141.064,257.8,141l-1.474-1.474.16-.16,1.539,1.536Z" transform="translate(938.964 -1172.845)" fill="#dad2bc" stroke="#dad2bc" stroke-width="0.5"/><path d="M251.373,139.46l1.525,1.525-.159.159-1.525-1.525Z" transform="translate(943.245 -1172.925)" fill="#dad2bc" stroke="#dad2bc" stroke-width="0.5"/><path d="M248.763,142.07l1.1,1.1-.159.159-1.1-1.1Z" transform="translate(945.429 -1175.109)" fill="#dad2bc" stroke="#dad2bc" stroke-width="0.5"/><path d="M248.163,146.71l.345.343-.159.16L248,146.87Z" transform="translate(945.932 -1178.992)" fill="#dad2bc" stroke="#dad2bc" stroke-width="0.5"/><path d="M259.347,288.422a2.792,2.792,0,0,1-1.142-5.34,2.753,2.753,0,0,1,1.142-.247,2.794,2.794,0,0,1,2.61,3.787,2.795,2.795,0,0,1-2.609,1.8Zm0-4.907a2.112,2.112,0,0,0-1.926,2.978,2.156,2.156,0,0,0,2.792,1.062,2.11,2.11,0,0,0,1.063-2.792A2.12,2.12,0,0,0,259.346,283.516Z" transform="translate(938.775 -1292.919)" fill="#dad2bc" stroke="#dad2bc" stroke-width="0.5"/><path d="M287.39,291.73h.71v.68h-.71Z" transform="translate(912.968 -1300.362)" fill="#dad2bc" stroke="#dad2bc" stroke-width="0.5"/><path d="M287.39,304.04h.656v.68h-.656Z" transform="translate(912.968 -1310.665)" fill="#dad2bc" stroke="#dad2bc" stroke-width="0.5"/><path d="M286.127,359.05a.619.619,0,0,1-.431-.17l-.65-.649a.343.343,0,0,1-.1-.226,7.085,7.085,0,0,0-6.721-6.721.35.35,0,0,1-.225-.1l-.6-.6a.641.641,0,0,1-.185-.447.624.624,0,0,1,.165-.426l2.7-2.687a.342.342,0,0,1,.3-.094.337.337,0,0,1,.248.189,17.761,17.761,0,0,0,8.539,8.511.339.339,0,0,1,.1.547l-2.681,2.681a.648.648,0,0,1-.454.192Zm-.509-1.207.509.509,2.316-2.316a18.453,18.453,0,0,1-8.221-8.2l-2.332,2.32.491.454a7.775,7.775,0,0,1,7.237,7.232Z" transform="translate(921.485 -1346.555)" fill="#dad2bc" stroke="#dad2bc" stroke-width="0.5"/><path d="M192.329,308.819a4.672,4.672,0,0,1-2.92-8.331l.425.531a4,4,0,1,0,4.991,0l.427-.529a4.677,4.677,0,0,1-2.924,8.33Z" transform="translate(996.449 -1307.692)" fill="#dad2bc" stroke="#dad2bc" stroke-width="0.5"/><path d="M198.3,308.355a3.52,3.52,0,1,1,3.519-3.52A3.524,3.524,0,0,1,198.3,308.355Zm0-6.359a2.839,2.839,0,1,0,2.839,2.839A2.843,2.843,0,0,0,198.3,302Z" transform="translate(990.477 -1308.385)" fill="#dad2bc" stroke="#dad2bc" stroke-width="0.5"/><path d="M203.744,312.752a2.458,2.458,0,1,1,2.458-2.458A2.461,2.461,0,0,1,203.744,312.752Zm0-4.238a1.779,1.779,0,1,0,1.778,1.779A1.781,1.781,0,0,0,203.744,308.514Z" transform="translate(985.03 -1313.841)" fill="#dad2bc" stroke="#dad2bc" stroke-width="0.5"/><path d="M203.58,254.744a2.49,2.49,0,1,1,2.489-2.49A2.493,2.493,0,0,1,203.58,254.744Zm0-4.3a1.81,1.81,0,1,0,1.809,1.81A1.812,1.812,0,0,0,203.58,250.445Z" transform="translate(985.194 -1265.24)" fill="#dad2bc" stroke="#dad2bc" stroke-width="0.5"/><path d="M227.151,269.79l1.193,8.613-.672.093-1.193-8.613Z" transform="translate(963.946 -1282)" fill="#dad2bc" stroke="#dad2bc" stroke-width="0.5"/><path d="M196,269.81l.673.094-1.2,8.612-.673-.094Z" transform="translate(990.458 -1282.017)" fill="#dad2bc" stroke="#dad2bc" stroke-width="0.5"/><path d="M500.716,287.827a3.054,3.054,0,0,1-1.71-.53l.385-.561a2.349,2.349,0,1,0,.535-4.153,2.257,2.257,0,0,0-.591.312l-.4-.55a2.949,2.949,0,0,1,.764-.4,3.028,3.028,0,0,1,2.341,5.575,2.988,2.988,0,0,1-1.323.309Z" transform="translate(735.923 -1292.025)" fill="#dad2bc" stroke="#dad2bc" stroke-width="0.5"/><path d="M500.9,292.727a1.847,1.847,0,0,1-1.726-1.194l.634-.241a1.164,1.164,0,1,0-.011-.787l-.642-.223a1.843,1.843,0,0,1,3.485,1.2,1.848,1.848,0,0,1-1.74,1.244Z" transform="translate(735.742 -1298.111)" fill="#dad2bc" stroke="#dad2bc" stroke-width="0.5"/><path d="M510.975,257.983a2.062,2.062,0,0,1-1.847-1.156,2.042,2.042,0,0,1-.1-1.571,2.09,2.09,0,0,1,2.614-1.272,2.056,2.056,0,0,1-.67,4Zm0-3.433a1.377,1.377,0,0,0-.45,2.678,1.4,1.4,0,0,0,1.75-.852,1.374,1.374,0,0,0-.851-1.749,1.392,1.392,0,0,0-.449-.076Z" transform="translate(727.568 -1268.682)" fill="#dad2bc" stroke="#dad2bc" stroke-width="0.5"/><path d="M522.232,275.05l.667.131-.514,2.618-.667-.131Z" transform="translate(716.856 -1286.402)" fill="#dad2bc" stroke="#dad2bc" stroke-width="0.5"/><path d="M503.638,269.29l.606.308-1.208,2.378-.606-.308Z" transform="translate(732.998 -1281.582)" fill="#dad2bc" stroke="#dad2bc" stroke-width="0.5"/><path d="M208.438,205.125a1.769,1.769,0,0,1-1.262-3.01,1.81,1.81,0,0,1,2.5-.024,1.77,1.77,0,0,1-1.24,3.034Zm0-2.86a1.091,1.091,0,0,0-.764,1.87,1.118,1.118,0,0,0,1.544-.015,1.091,1.091,0,0,0-.779-1.854Z" transform="translate(980.526 -1224.932)" fill="#dad2bc" stroke="#dad2bc" stroke-width="0.5"/><path d="M206.017,220.721a2.226,2.226,0,0,1-1.569-.641,2.355,2.355,0,0,1-.335-.419,2.226,2.226,0,0,1-.255-1.784l.513-1.977.657.172-.517,1.99a1.535,1.535,0,0,0,.172,1.231,1.676,1.676,0,0,0,.24.3,1.483,1.483,0,0,0,1.11.447,1.549,1.549,0,0,0,1.1-.468.98.98,0,0,0,.076-.091c.065-.082.1-.131.133-.179a1.378,1.378,0,0,0,.141-.276,1.449,1.449,0,0,0,.08-.308,1.426,1.426,0,0,0,.014-.312,2.422,2.422,0,0,0-.053-.329l.293-.23-.327.089-.076-.291.308-.167-.328.083-.343-1.327.288-.241-.323.108.649-.2.432,1.665-.3.19.328-.088.067.268a2.964,2.964,0,0,1,.065.422,2.035,2.035,0,0,1-.019.457,2.138,2.138,0,0,1-.327.861c-.044.064-.088.124-.133.182a2.31,2.31,0,0,1-.156.185,2.224,2.224,0,0,1-1.579.673h-.024Z" transform="translate(982.947 -1236.899)" fill="#dad2bc" stroke="#dad2bc" stroke-width="0.5"/><path d="M100.424,233.38a2.418,2.418,0,1,1,.512-4.782l-.141.665a1.739,1.739,0,1,0,0,3.4l.143.664a2.539,2.539,0,0,1-.512.054Z" transform="translate(1071.469 -1247.481)" fill="#dad2bc" stroke="#dad2bc" stroke-width="0.5"/><path d="M104.9,239.849a.686.686,0,0,1-1.372,0,.686.686,0,1,1,1.372,0" transform="translate(1066.844 -1256.368)" fill="#dad2bc" stroke="#dad2bc" stroke-width="0.5"/><path d="M584.545,233.37a2.45,2.45,0,0,1-.513-.055l.145-.664a1.76,1.76,0,0,0,2.107-1.7,1.736,1.736,0,0,0-2.107-1.7l-.143-.665a2.419,2.419,0,1,1,.512,4.784Z" transform="translate(664.704 -1247.471)" fill="#dad2bc" stroke="#dad2bc" stroke-width="0.5"/><path d="M589.441,239.849a.686.686,0,0,1-1.372,0,.686.686,0,1,1,1.372,0" transform="translate(661.324 -1256.368)" fill="#dad2bc" stroke="#dad2bc" stroke-width="0.5"/><path d="M276.988,243.313a.4.4,0,1,1-.809,0,.4.4,0,1,1,.809,0" transform="translate(922.351 -1259.503)" fill="#dad2bc" stroke="#dad2bc" stroke-width="0.5"/><path d="M276.988,271.593a.4.4,0,1,1-.809,0,.4.4,0,1,1,.809,0" transform="translate(922.351 -1283.171)" fill="#dad2bc" stroke="#dad2bc" stroke-width="0.5"/><path d="M276.988,328.183a.4.4,0,0,1-.809,0,.4.4,0,1,1,.809,0" transform="translate(922.351 -1330.532)" fill="#dad2bc" stroke="#dad2bc" stroke-width="0.5"/><path d="M276.988,356.483a.4.4,0,0,1-.809,0,.4.4,0,1,1,.809,0" transform="translate(922.351 -1354.216)" fill="#dad2bc" stroke="#dad2bc" stroke-width="0.5"/><path d="M252.245,229.158a.4.4,0,0,1-.808,0,.4.4,0,0,1,.808,0" transform="translate(943.058 -1247.657)" fill="#dad2bc" stroke="#dad2bc" stroke-width="0.5"/><path d="M252.245,257.458a.4.4,0,0,1-.808,0,.4.4,0,0,1,.808,0" transform="translate(943.058 -1271.341)" fill="#dad2bc" stroke="#dad2bc" stroke-width="0.5"/><path d="M252.245,285.748a.4.4,0,0,1-.808,0,.4.4,0,0,1,.808,0" transform="translate(943.058 -1295.018)" fill="#dad2bc" stroke="#dad2bc" stroke-width="0.5"/><path d="M252.245,314.038a.4.4,0,0,1-.808,0,.4.4,0,0,1,.808,0" transform="translate(943.058 -1318.694)" fill="#dad2bc" stroke="#dad2bc" stroke-width="0.5"/><path d="M252.245,342.338a.4.4,0,0,1-.808,0,.4.4,0,0,1,.808,0" transform="translate(943.058 -1342.379)" fill="#dad2bc" stroke="#dad2bc" stroke-width="0.5"/><path d="M227.485,243.318a.4.4,0,0,1-.808,0,.4.4,0,0,1,.808,0" transform="translate(963.78 -1259.507)" fill="#dad2bc" stroke="#dad2bc" stroke-width="0.5"/><path d="M227.485,356.488a.4.4,0,0,1-.808,0,.4.4,0,0,1,.808,0" transform="translate(963.78 -1354.221)" fill="#dad2bc" stroke="#dad2bc" stroke-width="0.5"/><path d="M202.738,229.158a.4.4,0,1,1-.807,0,.4.4,0,1,1,.807,0" transform="translate(984.49 -1247.657)" fill="#dad2bc" stroke="#dad2bc" stroke-width="0.5"/><path d="M202.12,257.819a.4.4,0,0,1,.2-.752C202.543,257.067,202.18,257.853,202.12,257.819Z" transform="translate(984.501 -1271.352)" fill="#dad2bc" stroke="#dad2bc" stroke-width="0.5"/><path d="M177.965,243.313a.4.4,0,0,1-.81,0,.4.4,0,0,1,.81,0" transform="translate(1005.226 -1259.503)" fill="#dad2bc" stroke="#dad2bc" stroke-width="0.5"/><path d="M177.965,271.593a.4.4,0,0,1-.81,0,.4.4,0,0,1,.81,0" transform="translate(1005.226 -1283.171)" fill="#dad2bc" stroke="#dad2bc" stroke-width="0.5"/><path d="M177.965,299.9a.4.4,0,0,1-.81,0,.4.4,0,0,1,.81,0" transform="translate(1005.226 -1306.858)" fill="#dad2bc" stroke="#dad2bc" stroke-width="0.5"/><path d="M177.965,328.183a.4.4,0,0,1-.81,0,.4.4,0,0,1,.81,0" transform="translate(1005.226 -1330.532)" fill="#dad2bc" stroke="#dad2bc" stroke-width="0.5"/><path d="M177.965,356.483a.4.4,0,0,1-.81,0,.4.4,0,0,1,.81,0" transform="translate(1005.226 -1354.216)" fill="#dad2bc" stroke="#dad2bc" stroke-width="0.5"/><path d="M153.218,229.158a.4.4,0,1,1-.807,0,.4.4,0,1,1,.807,0" transform="translate(1025.935 -1247.657)" fill="#dad2bc" stroke="#dad2bc" stroke-width="0.5"/><path d="M153.218,257.458a.4.4,0,1,1-.807,0,.4.4,0,1,1,.807,0" transform="translate(1025.935 -1271.341)" fill="#dad2bc" stroke="#dad2bc" stroke-width="0.5"/><path d="M153.218,285.748a.4.4,0,1,1-.807,0,.4.4,0,1,1,.807,0" transform="translate(1025.935 -1295.018)" fill="#dad2bc" stroke="#dad2bc" stroke-width="0.5"/><path d="M153.218,314.038a.4.4,0,1,1-.807,0,.4.4,0,1,1,.807,0" transform="translate(1025.935 -1318.694)" fill="#dad2bc" stroke="#dad2bc" stroke-width="0.5"/><path d="M153.218,342.338a.4.4,0,1,1-.807,0,.4.4,0,1,1,.807,0" transform="translate(1025.935 -1342.379)" fill="#dad2bc" stroke="#dad2bc" stroke-width="0.5"/><path d="M128.458,243.318a.4.4,0,1,1-.807,0,.4.4,0,1,1,.807,0" transform="translate(1046.657 -1259.507)" fill="#dad2bc" stroke="#dad2bc" stroke-width="0.5"/><path d="M128.458,271.6a.4.4,0,1,1-.807,0,.4.4,0,1,1,.807,0" transform="translate(1046.657 -1283.175)" fill="#dad2bc" stroke="#dad2bc" stroke-width="0.5"/><path d="M128.458,299.9a.4.4,0,1,1-.807,0,.4.4,0,0,1,.807,0" transform="translate(1046.657 -1306.863)" fill="#dad2bc" stroke="#dad2bc" stroke-width="0.5"/><path d="M128.458,328.188a.4.4,0,0,1-.807,0,.4.4,0,1,1,.807,0" transform="translate(1046.657 -1330.536)" fill="#dad2bc" stroke="#dad2bc" stroke-width="0.5"/><path d="M128.458,356.488a.4.4,0,0,1-.807,0,.4.4,0,1,1,.807,0" transform="translate(1046.657 -1354.221)" fill="#dad2bc" stroke="#dad2bc" stroke-width="0.5"/><path d="M301.748,398.918a.4.4,0,1,1-.807,0,.4.4,0,1,1,.807,0" transform="translate(901.627 -1389.732)" fill="#dad2bc" stroke="#dad2bc" stroke-width="0.5"/><path d="M276.988,384.783a.4.4,0,0,1-.809,0,.4.4,0,1,1,.809,0" transform="translate(922.351 -1377.901)" fill="#dad2bc" stroke="#dad2bc" stroke-width="0.5"/><path d="M252.245,370.628a.4.4,0,0,1-.808,0,.4.4,0,0,1,.808,0" transform="translate(943.058 -1366.055)" fill="#dad2bc" stroke="#dad2bc" stroke-width="0.5"/><path d="M252.245,398.918a.4.4,0,0,1-.808,0,.4.4,0,0,1,.808,0" transform="translate(943.058 -1389.732)" fill="#dad2bc" stroke="#dad2bc" stroke-width="0.5"/><path d="M227.485,384.788a.4.4,0,0,1-.808,0,.4.4,0,0,1,.808,0" transform="translate(963.78 -1377.906)" fill="#dad2bc" stroke="#dad2bc" stroke-width="0.5"/><path d="M202.738,370.628a.4.4,0,1,1-.807,0,.4.4,0,1,1,.807,0" transform="translate(984.49 -1366.055)" fill="#dad2bc" stroke="#dad2bc" stroke-width="0.5"/><path d="M202.738,398.918a.4.4,0,1,1-.807,0,.4.4,0,1,1,.807,0" transform="translate(984.49 -1389.732)" fill="#dad2bc" stroke="#dad2bc" stroke-width="0.5"/><path d="M177.965,384.783a.4.4,0,0,1-.81,0,.4.4,0,0,1,.81,0" transform="translate(1005.226 -1377.901)" fill="#dad2bc" stroke="#dad2bc" stroke-width="0.5"/><path d="M153.218,370.628a.4.4,0,1,1-.807,0,.4.4,0,1,1,.807,0" transform="translate(1025.935 -1366.055)" fill="#dad2bc" stroke="#dad2bc" stroke-width="0.5"/><path d="M153.218,398.918a.4.4,0,1,1-.807,0,.4.4,0,1,1,.807,0" transform="translate(1025.935 -1389.732)" fill="#dad2bc" stroke="#dad2bc" stroke-width="0.5"/><path d="M128.458,384.788a.4.4,0,0,1-.807,0,.4.4,0,1,1,.807,0" transform="translate(1046.657 -1377.906)" fill="#dad2bc" stroke="#dad2bc" stroke-width="0.5"/><path d="M575.848,243.318a.4.4,0,1,1-.807,0,.4.4,0,1,1,.807,0" transform="translate(672.229 -1259.507)" fill="#dad2bc" stroke="#dad2bc" stroke-width="0.5"/><path d="M575.848,271.6a.4.4,0,1,1-.807,0,.4.4,0,1,1,.807,0" transform="translate(672.229 -1283.175)" fill="#dad2bc" stroke="#dad2bc" stroke-width="0.5"/><path d="M575.848,299.9a.4.4,0,1,1-.807,0,.4.4,0,0,1,.807,0" transform="translate(672.229 -1306.863)" fill="#dad2bc" stroke="#dad2bc" stroke-width="0.5"/><path d="M575.848,328.188a.4.4,0,0,1-.807,0,.4.4,0,1,1,.807,0" transform="translate(672.229 -1330.536)" fill="#dad2bc" stroke="#dad2bc" stroke-width="0.5"/><path d="M575.848,356.488a.4.4,0,0,1-.807,0,.4.4,0,1,1,.807,0" transform="translate(672.229 -1354.221)" fill="#dad2bc" stroke="#dad2bc" stroke-width="0.5"/><path d="M551.088,229.158a.4.4,0,1,1-.807,0,.4.4,0,1,1,.807,0" transform="translate(692.951 -1247.657)" fill="#dad2bc" stroke="#dad2bc" stroke-width="0.5"/><path d="M551.088,257.458a.4.4,0,1,1-.807,0,.4.4,0,1,1,.807,0" transform="translate(692.951 -1271.341)" fill="#dad2bc" stroke="#dad2bc" stroke-width="0.5"/><path d="M551.088,285.748a.4.4,0,1,1-.807,0,.4.4,0,1,1,.807,0" transform="translate(692.951 -1295.018)" fill="#dad2bc" stroke="#dad2bc" stroke-width="0.5"/><path d="M551.088,314.038a.4.4,0,1,1-.807,0,.4.4,0,1,1,.807,0" transform="translate(692.951 -1318.694)" fill="#dad2bc" stroke="#dad2bc" stroke-width="0.5"/><path d="M551.088,342.338a.4.4,0,1,1-.807,0,.4.4,0,1,1,.807,0" transform="translate(692.951 -1342.379)" fill="#dad2bc" stroke="#dad2bc" stroke-width="0.5"/><path d="M526.338,243.313a.4.4,0,1,1-.809,0,.4.4,0,1,1,.809,0" transform="translate(713.666 -1259.503)" fill="#dad2bc" stroke="#dad2bc" stroke-width="0.5"/><path d="M526.338,299.9a.4.4,0,1,1-.809,0,.4.4,0,0,1,.809,0" transform="translate(713.666 -1306.858)" fill="#dad2bc" stroke="#dad2bc" stroke-width="0.5"/><path d="M526.338,328.183a.4.4,0,0,1-.809,0,.4.4,0,1,1,.809,0" transform="translate(713.666 -1330.532)" fill="#dad2bc" stroke="#dad2bc" stroke-width="0.5"/><path d="M526.338,356.483a.4.4,0,0,1-.809,0,.4.4,0,1,1,.809,0" transform="translate(713.666 -1354.216)" fill="#dad2bc" stroke="#dad2bc" stroke-width="0.5"/><path d="M501.585,229.158a.4.4,0,0,1-.808,0,.4.4,0,0,1,.808,0" transform="translate(734.381 -1247.657)" fill="#dad2bc" stroke="#dad2bc" stroke-width="0.5"/><path d="M501.585,257.458a.4.4,0,0,1-.808,0,.4.4,0,0,1,.808,0" transform="translate(734.381 -1271.341)" fill="#dad2bc" stroke="#dad2bc" stroke-width="0.5"/><path d="M501.591,315.252a.4.4,0,1,1-.807,0C500.785,315.029,501.591,315.029,501.591,315.252Z" transform="translate(734.375 -1319.908)" fill="#dad2bc" stroke="#dad2bc" stroke-width="0.5"/><path d="M501.585,342.338a.4.4,0,0,1-.808,0,.4.4,0,0,1,.808,0" transform="translate(734.381 -1342.379)" fill="#dad2bc" stroke="#dad2bc" stroke-width="0.5"/><path d="M575.848,384.788a.4.4,0,0,1-.807,0,.4.4,0,1,1,.807,0" transform="translate(672.229 -1377.906)" fill="#dad2bc" stroke="#dad2bc" stroke-width="0.5"/><path d="M551.088,370.628a.4.4,0,1,1-.807,0,.4.4,0,1,1,.807,0" transform="translate(692.951 -1366.055)" fill="#dad2bc" stroke="#dad2bc" stroke-width="0.5"/><path d="M551.088,398.918a.4.4,0,1,1-.807,0,.4.4,0,1,1,.807,0" transform="translate(692.951 -1389.732)" fill="#dad2bc" stroke="#dad2bc" stroke-width="0.5"/><path d="M526.338,384.783a.4.4,0,0,1-.809,0,.4.4,0,1,1,.809,0" transform="translate(713.666 -1377.901)" fill="#dad2bc" stroke="#dad2bc" stroke-width="0.5"/><path d="M501.585,370.628a.4.4,0,0,1-.808,0,.4.4,0,0,1,.808,0" transform="translate(734.381 -1366.055)" fill="#dad2bc" stroke="#dad2bc" stroke-width="0.5"/><path d="M501.585,398.918a.4.4,0,0,1-.808,0,.4.4,0,0,1,.808,0" transform="translate(734.381 -1389.732)" fill="#dad2bc" stroke="#dad2bc" stroke-width="0.5"/><path d="M476.825,384.788a.4.4,0,0,1-.808,0,.4.4,0,0,1,.808,0" transform="translate(755.103 -1377.906)" fill="#dad2bc" stroke="#dad2bc" stroke-width="0.5"/><path d="M452.065,398.918a.4.4,0,0,1-.808,0,.4.4,0,0,1,.808,0" transform="translate(775.825 -1389.732)" fill="#dad2bc" stroke="#dad2bc" stroke-width="0.5"/></g></svg>